<?xml version="1.0" encoding="utf-8"?>
<!-- Generator: Adobe Illustrator 26.0.1, SVG Export Plug-In . SVG Version: 6.00 Build 0)  -->
<svg version="1.1" id="Layer_1" xmlns="http://www.w3.org/2000/svg" xmlns:xlink="http://www.w3.org/1999/xlink" x="0px" y="0px"
	 viewBox="0 0 1080 1080" style="enable-background:new 0 0 1080 1080;" xml:space="preserve">
<style type="text/css">
	.st0{fill:#2596F2;}
	.st1{opacity:0.5;fill:#2596F2;}
</style>
<g>
	<path d="M217.24,535.14c-1.23,2.32-3.21,4.2-5.92,5.66c-2.71,1.45-6.19,2.18-10.43,2.18h-9.32v20.85h-8.43v-51.4h17.75
		c3.94,0,7.28,0.68,10.02,2.03c2.74,1.36,4.78,3.19,6.14,5.51c1.36,2.32,2.03,4.91,2.03,7.76
		C219.09,530.35,218.47,532.82,217.24,535.14z M208.07,533.92c1.58-1.45,2.37-3.51,2.37-6.17c0-5.62-3.18-8.43-9.54-8.43h-9.32
		v16.79h9.32C204.1,536.1,206.49,535.37,208.07,533.92z"/>
	<path d="M240.5,524.15c2.04-1.16,4.47-1.74,7.28-1.74v8.73h-2.15c-3.3,0-5.8,0.84-7.51,2.51c-1.7,1.68-2.55,4.58-2.55,8.73v21.45
		h-8.43v-40.75h8.43V529C236.81,526.93,238.45,525.31,240.5,524.15z"/>
	<path d="M262.79,561.87c-3.11-1.75-5.55-4.21-7.32-7.4c-1.77-3.18-2.66-6.86-2.66-11.05c0-4.14,0.91-7.81,2.74-11.02
		c1.82-3.2,4.31-5.67,7.47-7.4c3.15-1.73,6.68-2.59,10.58-2.59c3.89,0,7.42,0.86,10.57,2.59c3.15,1.73,5.64,4.19,7.47,7.4
		c1.82,3.21,2.74,6.88,2.74,11.02c0,4.14-0.94,7.81-2.81,11.02c-1.87,3.21-4.43,5.68-7.65,7.43c-3.23,1.75-6.79,2.62-10.69,2.62
		C269.37,564.49,265.9,563.62,262.79,561.87z M279.32,555.62c1.9-1.04,3.44-2.59,4.62-4.66c1.18-2.07,1.77-4.58,1.77-7.54
		s-0.57-5.46-1.7-7.51c-1.13-2.04-2.64-3.59-4.51-4.62c-1.87-1.04-3.9-1.55-6.06-1.55c-2.17,0-4.18,0.52-6.03,1.55
		c-1.85,1.04-3.32,2.58-4.4,4.62c-1.08,2.05-1.63,4.55-1.63,7.51c0,4.39,1.12,7.78,3.36,10.17c2.24,2.39,5.07,3.59,8.47,3.59
		C275.39,557.17,277.42,556.66,279.32,555.62z"/>
	<path d="M302.46,532.4c1.7-3.15,4.02-5.61,6.95-7.36c2.93-1.75,6.2-2.62,9.8-2.62c2.66,0,5.29,0.58,7.88,1.74
		c2.59,1.16,4.65,2.7,6.17,4.62v-19.67h8.5v54.72h-8.5v-6.14c-1.38,1.97-3.29,3.6-5.73,4.88c-2.44,1.28-5.24,1.92-8.39,1.92
		c-3.55,0-6.79-0.9-9.72-2.7c-2.93-1.8-5.25-4.31-6.95-7.54c-1.7-3.23-2.55-6.89-2.55-10.98
		C299.91,539.18,300.76,535.56,302.46,532.4z M331.53,536.1c-1.16-2.07-2.67-3.65-4.55-4.73c-1.87-1.08-3.9-1.63-6.06-1.63
		c-2.17,0-4.19,0.53-6.06,1.59c-1.87,1.06-3.39,2.61-4.55,4.66c-1.16,2.05-1.74,4.47-1.74,7.28c0,2.81,0.58,5.28,1.74,7.4
		c1.16,2.12,2.69,3.73,4.58,4.84c1.9,1.11,3.91,1.66,6.03,1.66c2.17,0,4.19-0.54,6.06-1.63c1.87-1.08,3.39-2.67,4.55-4.77
		c1.16-2.09,1.74-4.55,1.74-7.36C333.26,540.61,332.68,538.17,331.53,536.1z"/>
	<path d="M353.3,516.13c-1.04-1.04-1.55-2.32-1.55-3.85c0-1.53,0.52-2.81,1.55-3.85c1.04-1.04,2.32-1.55,3.85-1.55
		c1.48,0,2.74,0.52,3.77,1.55c1.04,1.04,1.55,2.32,1.55,3.85c0,1.53-0.52,2.81-1.55,3.85c-1.04,1.04-2.29,1.55-3.77,1.55
		C355.62,517.68,354.34,517.17,353.3,516.13z M361.29,523.08v40.75h-8.43v-40.75H361.29z"/>
	<path d="M397.19,524.3c2.44,1.26,4.35,2.82,5.73,4.7v-5.92h8.5v41.41c0,3.75-0.79,7.09-2.37,10.02c-1.58,2.93-3.86,5.24-6.84,6.91
		c-2.98,1.68-6.54,2.51-10.69,2.51c-5.52,0-10.11-1.29-13.75-3.88c-3.65-2.59-5.72-6.1-6.21-10.54h8.36
		c0.64,2.12,2.01,3.83,4.1,5.14c2.1,1.31,4.6,1.96,7.51,1.96c3.4,0,6.15-1.04,8.25-3.11c2.1-2.07,3.14-5.08,3.14-9.02v-6.8
		c-1.43,1.92-3.36,3.54-5.81,4.84s-5.21,1.96-8.32,1.96c-3.55,0-6.79-0.9-9.72-2.7c-2.93-1.8-5.25-4.31-6.95-7.54
		c-1.7-3.23-2.55-6.89-2.55-10.98c0-4.09,0.85-7.71,2.55-10.87c1.7-3.15,4.02-5.61,6.95-7.36c2.93-1.75,6.17-2.62,9.72-2.62
		C391.95,522.42,394.75,523.05,397.19,524.3z M401.19,536.1c-1.16-2.07-2.67-3.65-4.55-4.73c-1.87-1.08-3.9-1.63-6.06-1.63
		c-2.17,0-4.19,0.53-6.06,1.59c-1.87,1.06-3.39,2.61-4.55,4.66c-1.16,2.05-1.74,4.47-1.74,7.28c0,2.81,0.58,5.28,1.74,7.4
		c1.16,2.12,2.69,3.73,4.58,4.84c1.9,1.11,3.91,1.66,6.03,1.66c2.17,0,4.19-0.54,6.06-1.63c1.87-1.08,3.39-2.67,4.55-4.77
		c1.16-2.09,1.74-4.55,1.74-7.36C402.92,540.61,402.34,538.17,401.19,536.1z"/>
	<path d="M422.26,532.4c1.7-3.15,4.02-5.61,6.95-7.36c2.93-1.75,6.17-2.62,9.72-2.62c3.2,0,6,0.63,8.39,1.89
		c2.39,1.26,4.3,2.82,5.73,4.7v-5.92h8.5v40.75h-8.5v-6.06c-1.43,1.92-3.38,3.53-5.84,4.81c-2.47,1.28-5.28,1.92-8.43,1.92
		c-3.5,0-6.71-0.9-9.61-2.7c-2.91-1.8-5.21-4.31-6.91-7.54c-1.7-3.23-2.55-6.89-2.55-10.98
		C419.71,539.18,420.56,535.56,422.26,532.4z M451.33,536.1c-1.16-2.07-2.67-3.65-4.55-4.73c-1.87-1.08-3.9-1.63-6.06-1.63
		c-2.17,0-4.19,0.53-6.06,1.59c-1.87,1.06-3.39,2.61-4.55,4.66c-1.16,2.05-1.74,4.47-1.74,7.28c0,2.81,0.58,5.28,1.74,7.4
		c1.16,2.12,2.69,3.73,4.58,4.84c1.9,1.11,3.91,1.66,6.03,1.66c2.17,0,4.19-0.54,6.06-1.63c1.87-1.08,3.39-2.67,4.55-4.77
		c1.16-2.09,1.74-4.55,1.74-7.36C453.06,540.61,452.48,538.17,451.33,536.1z"/>
	<path d="M481.09,509.11v54.72h-8.43v-54.72H481.09z"/>
	<path d="M542.39,553.33h-21.52l-3.7,10.5h-8.8l18.41-51.47h9.76l18.41,51.47h-8.87L542.39,553.33z M540.03,546.45l-8.36-23.89
		l-8.43,23.89H540.03z"/>
	<path d="M571.38,512.43v51.4h-8.43v-51.4H571.38z"/>
	<path d="M636.24,541.79c1.92,2.42,2.88,5.15,2.88,8.21c0,2.61-0.68,4.97-2.03,7.06c-1.36,2.1-3.32,3.75-5.88,4.95
		c-2.56,1.21-5.55,1.81-8.95,1.81H601.7v-51.4h19.6c3.5,0,6.51,0.59,9.02,1.77c2.51,1.18,4.41,2.77,5.69,4.77
		c1.28,2,1.92,4.23,1.92,6.69c0,2.96-0.79,5.42-2.37,7.4c-1.58,1.97-3.7,3.43-6.36,4.36C631.97,537.92,634.31,539.38,636.24,541.79z
		 M610.13,534.03h10.43c2.76,0,4.92-0.63,6.47-1.89c1.55-1.26,2.33-3.07,2.33-5.44c0-2.32-0.78-4.13-2.33-5.44
		c-1.55-1.31-3.71-1.96-6.47-1.96h-10.43V534.03z M628.25,554.88c1.63-1.38,2.44-3.3,2.44-5.77c0-2.51-0.86-4.51-2.59-5.99
		c-1.73-1.48-4.02-2.22-6.88-2.22h-11.09v16.05h11.39C624.38,556.95,626.62,556.26,628.25,554.88z"/>
	<path d="M656.72,509.11v54.72h-8.43v-54.72H656.72z"/>
	<path d="M675.06,561.87c-3.11-1.75-5.55-4.21-7.32-7.4c-1.78-3.18-2.66-6.86-2.66-11.05c0-4.14,0.91-7.81,2.74-11.02
		c1.82-3.2,4.31-5.67,7.47-7.4c3.15-1.73,6.68-2.59,10.57-2.59s7.42,0.86,10.58,2.59c3.15,1.73,5.64,4.19,7.47,7.4
		c1.82,3.21,2.74,6.88,2.74,11.02c0,4.14-0.94,7.81-2.81,11.02c-1.88,3.21-4.43,5.68-7.65,7.43c-3.23,1.75-6.79,2.62-10.69,2.62
		C681.64,564.49,678.16,563.62,675.06,561.87z M691.59,555.62c1.9-1.04,3.44-2.59,4.62-4.66c1.18-2.07,1.77-4.58,1.77-7.54
		s-0.57-5.46-1.7-7.51c-1.13-2.04-2.64-3.59-4.51-4.62c-1.87-1.04-3.89-1.55-6.06-1.55c-2.17,0-4.18,0.52-6.03,1.55
		c-1.85,1.04-3.32,2.58-4.4,4.62c-1.08,2.05-1.63,4.55-1.63,7.51c0,4.39,1.12,7.78,3.36,10.17c2.24,2.39,5.07,3.59,8.47,3.59
		C687.65,557.17,689.69,556.66,691.59,555.62z"/>
	<path d="M714.73,532.36c1.7-3.18,4.05-5.63,7.06-7.36c3.01-1.73,6.46-2.59,10.35-2.59c4.93,0,9.01,1.17,12.24,3.51
		c3.23,2.34,5.41,5.68,6.54,10.02h-9.1c-0.74-2.02-1.92-3.6-3.55-4.73c-1.63-1.13-3.67-1.7-6.14-1.7c-3.45,0-6.2,1.22-8.25,3.66
		s-3.07,5.85-3.07,10.24s1.02,7.81,3.07,10.28c2.05,2.47,4.79,3.7,8.25,3.7c4.88,0,8.11-2.14,9.69-6.43h9.1
		c-1.18,4.14-3.4,7.43-6.66,9.87s-7.3,3.66-12.13,3.66c-3.9,0-7.35-0.87-10.35-2.62c-3.01-1.75-5.36-4.21-7.06-7.4
		c-1.7-3.18-2.55-6.86-2.55-11.05C712.18,539.23,713.03,535.54,714.73,532.36z"/>
	<path d="M775.48,543.49l18.78,20.34h-11.39l-15.09-17.53v17.53h-8.43v-54.72h8.43v31.8l14.79-17.82h11.68L775.48,543.49z"/>
	<path d="M800.07,532.36c1.7-3.18,4.05-5.63,7.06-7.36c3.01-1.73,6.46-2.59,10.35-2.59c4.93,0,9.01,1.17,12.24,3.51
		c3.23,2.34,5.41,5.68,6.54,10.02h-9.1c-0.74-2.02-1.92-3.6-3.55-4.73c-1.63-1.13-3.67-1.7-6.14-1.7c-3.45,0-6.2,1.22-8.25,3.66
		s-3.07,5.85-3.07,10.24s1.02,7.81,3.07,10.28c2.05,2.47,4.79,3.7,8.25,3.7c4.88,0,8.11-2.14,9.69-6.43h9.1
		c-1.18,4.14-3.4,7.43-6.66,9.87s-7.3,3.66-12.13,3.66c-3.9,0-7.35-0.87-10.35-2.62c-3.01-1.75-5.36-4.21-7.06-7.4
		c-1.7-3.18-2.55-6.86-2.55-11.05C797.52,539.23,798.37,535.54,800.07,532.36z"/>
	<path d="M874.09,524.41c2.44,1.33,4.36,3.3,5.77,5.92c1.41,2.61,2.11,5.77,2.11,9.47v24.03h-8.36v-22.78
		c0-3.65-0.91-6.44-2.74-8.39c-1.82-1.95-4.31-2.92-7.47-2.92c-3.16,0-5.66,0.97-7.51,2.92c-1.85,1.95-2.77,4.75-2.77,8.39v22.78
		h-8.43v-54.72h8.43v18.71c1.43-1.73,3.24-3.06,5.44-3.99c2.19-0.94,4.6-1.4,7.21-1.4C868.88,522.42,871.65,523.08,874.09,524.41z"
		/>
	<path d="M892.43,532.4c1.7-3.15,4.02-5.61,6.95-7.36c2.93-1.75,6.17-2.62,9.72-2.62c3.2,0,6,0.63,8.39,1.89
		c2.39,1.26,4.3,2.82,5.73,4.7v-5.92h8.5v40.75h-8.5v-6.06c-1.43,1.92-3.38,3.53-5.84,4.81c-2.47,1.28-5.28,1.92-8.43,1.92
		c-3.5,0-6.71-0.9-9.61-2.7c-2.91-1.8-5.21-4.31-6.92-7.54c-1.7-3.23-2.55-6.89-2.55-10.98
		C889.88,539.18,890.73,535.56,892.43,532.4z M921.49,536.1c-1.16-2.07-2.67-3.65-4.55-4.73c-1.87-1.08-3.89-1.63-6.06-1.63
		c-2.17,0-4.19,0.53-6.06,1.59c-1.87,1.06-3.39,2.61-4.55,4.66c-1.16,2.05-1.74,4.47-1.74,7.28c0,2.81,0.58,5.28,1.74,7.4
		c1.16,2.12,2.69,3.73,4.58,4.84c1.9,1.11,3.91,1.66,6.03,1.66c2.17,0,4.19-0.54,6.06-1.63c1.87-1.08,3.39-2.67,4.55-4.77
		c1.16-2.09,1.74-4.55,1.74-7.36C923.23,540.61,922.65,538.17,921.49,536.1z"/>
	<path d="M943.27,516.13c-1.04-1.04-1.55-2.32-1.55-3.85c0-1.53,0.52-2.81,1.55-3.85c1.04-1.04,2.32-1.55,3.84-1.55
		c1.48,0,2.74,0.52,3.77,1.55c1.04,1.04,1.55,2.32,1.55,3.85c0,1.53-0.52,2.81-1.55,3.85c-1.04,1.04-2.29,1.55-3.77,1.55
		C945.59,517.68,944.31,517.17,943.27,516.13z M951.26,523.08v40.75h-8.43v-40.75H951.26z"/>
	<path d="M991.52,524.41c2.54,1.33,4.52,3.3,5.95,5.92c1.43,2.61,2.14,5.77,2.14,9.47v24.03h-8.36v-22.78
		c0-3.65-0.91-6.44-2.74-8.39c-1.82-1.95-4.31-2.92-7.47-2.92c-3.16,0-5.66,0.97-7.51,2.92c-1.85,1.95-2.77,4.75-2.77,8.39v22.78
		h-8.43v-40.75h8.43v4.66c1.38-1.68,3.14-2.98,5.29-3.92c2.14-0.94,4.42-1.4,6.84-1.4C986.11,522.42,988.98,523.08,991.52,524.41z"
		/>
</g>
<g>
	<path class="st0" d="M115.19,594.37c-0.97-0.45-1.61-0.69-2.19-1.02c-12.01-6.9-24.01-13.84-36.05-20.7
		c-1.36-0.77-1.75-1.67-1.75-3.14c0.03-24.74,0-49.48,0.1-74.22c0-1.04,0.84-2.53,1.73-3.05c10.81-6.36,22.74-12.62,33.67-18.78
		c0.83-0.47,0.29-0.41,1.14,0.07c10.84,6.12,22.67,13.45,33.49,19.62c1.39,0.79,1.92,0.64,1.91,2.26
		c-0.07,12.37-0.08,24.74,0.01,37.11c0.01,1.79-0.7,2.64-2.14,3.45c-9.23,5.24-18.38,10.62-27.63,15.82
		c-1.79,1.01-2.36,2.15-2.35,4.16c0.09,11.76,0.05,23.51,0.05,35.27C115.19,592.15,115.19,593.09,115.19,594.37z M115.51,484.28
		c-0.16,0.69-0.29,1-0.29,1.32c-0.02,8.15-0.07,16.3,0.06,24.45c0.01,0.87,0.9,2.04,1.71,2.53c5.33,3.21,10.74,6.27,16.13,9.37
		c1.87,1.07,3.76,2.1,5.63,3.14c0.25-0.37,0.41-0.51,0.41-0.64c0.03-8.41,0.1-16.82,0-25.23c-0.01-0.78-0.92-1.82-1.69-2.28
		c-4.12-2.5-8.32-4.86-12.49-7.26C121.9,487.9,118.81,486.15,115.51,484.28z M107.22,543.85c0-9.22,0.04-17.8-0.07-26.39
		c-0.01-0.71-0.87-1.64-1.58-2.06c-5.43-3.22-10.92-6.34-16.4-9.49c-1.8-1.03-3.6-2.05-5.48-3.12c-0.23,0.54-0.41,0.76-0.41,0.99
		c-0.03,8.34-0.08,16.67,0.01,25.01c0.01,0.73,0.82,1.69,1.52,2.13c3.21,1.98,6.51,3.82,9.78,5.7
		C98.59,538.91,102.61,541.21,107.22,543.85z M106.89,580.45c0.16-0.56,0.29-0.8,0.29-1.03c0.02-8.23,0.09-16.46-0.05-24.68
		c-0.02-0.91-1.04-2.13-1.93-2.66c-6.54-3.9-13.16-7.66-19.77-11.45c-0.57-0.33-1.21-0.54-1.94-0.86c-0.13,0.55-0.26,0.87-0.26,1.2
		c-0.02,8.14-0.07,16.28,0.06,24.42c0.01,0.86,0.93,2.02,1.74,2.51c5.48,3.29,11.04,6.44,16.58,9.62
		C103.33,578.5,105.07,579.44,106.89,580.45z M115.36,543.77c6.66-3.84,12.97-7.47,19.77-11.39c-6.83-3.92-13.13-7.54-19.77-11.35
		C115.36,528.8,115.36,536.01,115.36,543.77z M87.25,495.54c6.82,3.91,13.18,7.56,19.75,11.32c0-7.8,0-15,0-22.67
		C100.35,488.01,94.07,491.61,87.25,495.54z"/>
	<g>
		<path class="st0" d="M120.69,584.17c0.2,0.21,0.29,0.49,0.28,0.75c-0.01,0.27-0.12,0.53-0.34,0.73c-0.43,0.39-1.09,0.37-1.48-0.06
			c-0.2-0.21-0.29-0.49-0.28-0.75s0.12-0.53,0.34-0.73C119.63,583.72,120.29,583.74,120.69,584.17z"/>
		<path class="st0" d="M135.41,577.54c0,0.03-0.01,0.05-0.01,0.08c-0.01,0.24,0.04,0.47,0.14,0.69l-3.25,2.99l-3.25,2.99
			c-0.24-0.13-0.5-0.2-0.76-0.19l-3.5-10.22c0.15-0.08,0.29-0.18,0.42-0.29c0.13-0.12,0.23-0.25,0.33-0.39L135.41,577.54z"/>
		<path class="st0" d="M121.81,585.51l5,0.46c0.06,0.26,0.18,0.49,0.36,0.69c0.19,0.21,0.43,0.35,0.68,0.43l0.1,4l0.05,1.74
			c-0.15,0.06-0.28,0.14-0.41,0.24l-6.26-6.79C121.56,586.06,121.72,585.8,121.81,585.51z"/>
		<path class="st1" d="M123.75,574.12c0.03,0,0.06,0,0.1,0l3.53,10.29c-0.04,0.03-0.08,0.06-0.11,0.09
			c-0.16,0.15-0.28,0.32-0.37,0.52l-5.01-0.46c-0.06-0.39-0.23-0.74-0.5-1.04c-0.26-0.28-0.58-0.47-0.94-0.57l2.9-8.89
			C123.48,574.1,123.61,574.12,123.75,574.12z"/>
		<path class="st0" d="M129.81,585.79c0.03-0.27-0.01-0.54-0.13-0.79l6.5-5.99c0.24,0.13,0.51,0.2,0.78,0.19l3.76,10.55
			c-0.14,0.08-0.27,0.17-0.39,0.28c-0.12,0.11-0.22,0.24-0.31,0.37L129.81,585.79z"/>
		<path class="st0" d="M135.2,570.8c0.3,0.32,0.68,0.53,1.11,0.61l0,0.17l0.11,4.66c-0.19,0.07-0.37,0.17-0.52,0.32
			c-0.04,0.03-0.07,0.07-0.1,0.11l-3.39-1.48l-6.57-2.88c0-0.03,0.01-0.06,0.01-0.1c0.01-0.14,0-0.27-0.02-0.4l8.88-2.05
			C134.75,570.14,134.93,570.51,135.2,570.8z"/>
		<path class="st1" d="M144.02,577.42c-0.19,0.17-0.33,0.37-0.44,0.59l-5.15-0.63c-0.05-0.27-0.17-0.52-0.37-0.74
			c-0.19-0.21-0.43-0.35-0.68-0.42l-0.11-4.8l0-0.06c0.28-0.09,0.55-0.23,0.77-0.44c0,0,0,0,0,0L144.02,577.42
			C144.02,577.42,144.02,577.42,144.02,577.42z"/>
		<path class="st0" d="M141.77,589.51c-0.04,0-0.08,0-0.12,0l-3.79-10.63c0.03-0.03,0.07-0.05,0.1-0.08
			c0.15-0.14,0.27-0.3,0.35-0.47l5.06,0.62c0.01,0.48,0.2,0.94,0.53,1.3c0.25,0.27,0.56,0.46,0.9,0.56l-2.66,8.75
			C142.03,589.53,141.9,589.52,141.77,589.51z"/>
		<path class="st1" d="M129.81,593.23c-0.23-0.25-0.53-0.42-0.85-0.48l-0.15-5.68c0.19-0.07,0.37-0.17,0.52-0.31
			c0.03-0.03,0.06-0.06,0.09-0.09l10.28,4.65c0,0.04-0.01,0.08-0.01,0.12c-0.01,0.13,0,0.26,0.02,0.39l-9.52,2.12
			C130.13,593.68,130,593.43,129.81,593.23z"/>
		<path class="st1" d="M124.89,572.17c-0.01,0.27-0.12,0.53-0.34,0.73c-0.43,0.39-1.09,0.37-1.48-0.06
			c-0.2-0.21-0.29-0.49-0.28-0.75c0.01-0.27,0.12-0.53,0.34-0.73c0.43-0.39,1.09-0.37,1.48,0.06
			C124.81,571.63,124.9,571.9,124.89,572.17z"/>
		<path class="st0" d="M137.38,570.22c-0.43,0.39-1.09,0.37-1.48-0.06c-0.2-0.21-0.29-0.49-0.28-0.75s0.12-0.53,0.34-0.73
			c0.43-0.39,1.09-0.37,1.48,0.06c0.2,0.21,0.29,0.49,0.28,0.75S137.6,570.02,137.38,570.22z"/>
		<path class="st1" d="M144.6,579.61c-0.2-0.21-0.29-0.49-0.28-0.75s0.12-0.53,0.34-0.73c0.43-0.39,1.09-0.37,1.48,0.06
			c0.2,0.21,0.29,0.49,0.28,0.75c-0.01,0.27-0.12,0.53-0.34,0.73C145.66,580.06,145,580.03,144.6,579.61z"/>
		<path class="st0" d="M140.64,591.47c0.01-0.27,0.12-0.53,0.34-0.73c0.43-0.39,1.09-0.37,1.48,0.06c0.2,0.21,0.29,0.49,0.28,0.75
			s-0.12,0.53-0.34,0.73c-0.43,0.39-1.09,0.37-1.48-0.06C140.72,592.01,140.63,591.74,140.64,591.47z"/>
		<path class="st1" d="M127.91,593.56c0.43-0.39,1.09-0.37,1.48,0.06c0.2,0.21,0.29,0.49,0.28,0.75s-0.12,0.53-0.34,0.73
			c-0.43,0.39-1.09,0.37-1.48-0.06c-0.2-0.21-0.29-0.49-0.28-0.75C127.58,594.02,127.69,593.75,127.91,593.56z"/>
	</g>
</g>
</svg>
